<svg xmlns="http://www.w3.org/2000/svg" width="48" height="48" viewBox="0 0 48 48" fill="none">
<path d="M42.9 21.8797C43.5523 21.1941 43.9404 20.2994 43.9954 19.3547C44.0503 18.4099 43.7685 17.4763 43.2 16.7197C40.8389 13.9425 37.8937 11.7209 34.5747 10.2135C31.2558 8.70616 27.6449 7.95022 24 7.99969C20.3512 7.93722 16.7343 8.68934 13.4129 10.2013C10.0915 11.7132 7.1491 13.9469 4.8 16.7397C4.23686 17.4947 3.95819 18.4241 4.01307 19.3644C4.06794 20.3046 4.45285 21.1954 5.1 21.8797L21.1 38.7597C21.4741 39.1521 21.9241 39.4644 22.4226 39.6776C22.9212 39.8907 23.4578 40.0003 24 39.9997C24.5422 40.0003 25.0788 39.8907 25.5774 39.6776C26.0759 39.4644 26.5259 39.1521 26.9 38.7597L27.14 38.4997C26.4051 37.1126 26.0141 35.5693 26 33.9997C26 31.3475 27.0536 28.804 28.9289 26.9286C30.8043 25.0533 33.3478 23.9997 36 23.9997C37.3802 24.0098 38.743 24.3096 40 24.8797L42.9 21.8797ZM34 27.9997C33.4696 27.9997 32.9609 28.2104 32.5858 28.5855C32.2107 28.9605 32 29.4693 32 29.9997V33.9997C31.7368 33.9982 31.4759 34.0486 31.2322 34.1481C30.9885 34.2477 30.7669 34.3943 30.58 34.5797C30.3925 34.7656 30.2438 34.9868 30.1422 35.2305C30.0407 35.4743 29.9884 35.7357 29.9884 35.9997C29.9884 36.2637 30.0407 36.5251 30.1422 36.7688C30.2438 37.0126 30.3925 37.2338 30.58 37.4197L32.58 39.4197C32.7669 39.605 32.9885 39.7517 33.2322 39.8512C33.4759 39.9508 33.7368 40.0012 34 39.9997C34.2624 40.0065 34.5226 39.9517 34.76 39.8397C35.1252 39.6896 35.4379 39.4349 35.6586 39.1074C35.8792 38.78 35.998 38.3945 36 37.9997V29.9997C36 29.4693 35.7893 28.9605 35.4142 28.5855C35.0391 28.2104 34.5304 27.9997 34 27.9997ZM43.42 30.5797L41.42 28.5797C41.1388 28.3022 40.7816 28.1142 40.3936 28.0394C40.0057 27.9647 39.6042 28.0065 39.24 28.1597C38.8748 28.3097 38.5621 28.5645 38.3414 28.892C38.1208 29.2194 38.002 29.6048 38 29.9997V37.9997C38 38.5301 38.2107 39.0388 38.5858 39.4139C38.9609 39.789 39.4696 39.9997 40 39.9997C40.5304 39.9997 41.0391 39.789 41.4142 39.4139C41.7893 39.0388 42 38.5301 42 37.9997V33.9997C42.2632 34.0012 42.5241 33.9508 42.7678 33.8512C43.0115 33.7517 43.2331 33.605 43.42 33.4197C43.6075 33.2338 43.7563 33.0126 43.8578 32.7688C43.9593 32.5251 44.0116 32.2637 44.0116 31.9997C44.0116 31.7357 43.9593 31.4743 43.8578 31.2305C43.7563 30.9868 43.6075 30.7656 43.42 30.5797Z" fill="#141414"></path>
</svg>